<svg width="36" height="36" viewBox="0 0 36 36" fill="none" xmlns="http://www.w3.org/2000/svg">
<path d="M36 18C36 8.05888 27.9411 0 18 0C8.05888 0 0 8.05888 0 18C0 27.9411 8.05888 36 18 36C27.9411 36 36 27.9411 36 18Z" fill="white"/>
<path fill-rule="evenodd" clip-rule="evenodd" d="M26.808 18.2047C26.808 17.5665 26.7507 16.9529 26.6444 16.3638H18.168V19.8451H23.0116C22.803 20.9701 22.1689 21.9233 21.2157 22.5615V24.8197H24.1243C25.8262 23.2529 26.808 20.9456 26.808 18.2047Z" fill="#828282"/>
<path fill-rule="evenodd" clip-rule="evenodd" d="M18.1677 27C20.5977 27 22.635 26.1941 24.1241 24.8195L21.2155 22.5613C20.4096 23.1013 19.3787 23.4204 18.1677 23.4204C15.8236 23.4204 13.8396 21.8372 13.1318 19.71H10.125V22.0418C11.6059 24.9832 14.6496 27 18.1677 27Z" fill="#828282"/>
<path fill-rule="evenodd" clip-rule="evenodd" d="M13.1321 19.7098C12.9521 19.1698 12.8498 18.593 12.8498 17.9998C12.8498 17.4067 12.9521 16.8298 13.1321 16.2898V13.958H10.1252C9.5157 15.173 9.16797 16.5476 9.16797 17.9998C9.16797 19.4521 9.5157 20.8267 10.1252 22.0417L13.1321 19.7098Z" fill="#828282"/>
<path fill-rule="evenodd" clip-rule="evenodd" d="M18.1677 12.5796C19.4891 12.5796 20.6755 13.0336 21.6082 13.9255L24.1896 11.3441C22.6309 9.89182 20.5937 9 18.1677 9C14.6496 9 11.6059 11.0168 10.125 13.9582L13.1318 16.29C13.8396 14.1627 15.8236 12.5796 18.1677 12.5796Z" fill="#828282"/>
</svg>
