<svg width="36" height="36" viewBox="0 0 36 36" fill="none" xmlns="http://www.w3.org/2000/svg">
<rect width="36" height="36" rx="18" fill="white"/>
<path d="M18.8839 24.3C12.119 24.3 8.26038 19.5702 8.09961 11.7H11.4882C11.5995 17.4765 14.0977 19.9234 16.0765 20.4279V11.7H19.2673V16.6819C21.2213 16.4675 23.2743 14.1972 23.9668 11.7H27.1576C26.8966 12.9951 26.3764 14.2214 25.6295 15.3022C24.8825 16.383 23.925 17.2949 22.8167 17.981C24.0538 18.608 25.1465 19.4953 26.0227 20.5845C26.8988 21.6737 27.5386 22.9401 27.8996 24.3H24.3873C24.0632 23.1188 23.4045 22.0615 22.4937 21.2605C21.5829 20.4595 20.4605 19.9505 19.2673 19.7972V24.3H18.8839Z" fill="#828282"/>
</svg>
